<svg width="46" height="42" viewBox="0 0 46 42" fill="none" xmlns="http://www.w3.org/2000/svg">
<path d="M46 21C46 32.598 35.7025 42 23 42C10.2975 42 0 32.598 0 21C0 9.40202 10.2975 0 23 0C35.7025 0 46 9.40202 46 21Z" fill="#F8856C"/>
<path d="M14.112 12.416V26.408H20.76L20.4 29H10.944V12.416H14.112Z" fill="#732D1E"/>
<path d="M28.4134 12.056C29.9014 12.056 31.1894 12.392 32.2774 13.064C33.3654 13.736 34.1974 14.72 34.7734 16.016C35.3654 17.312 35.6614 18.872 35.6614 20.696C35.6614 22.504 35.3654 24.056 34.7734 25.352C34.1814 26.648 33.3414 27.64 32.2534 28.328C31.1654 29.016 29.8854 29.36 28.4134 29.36C26.9254 29.36 25.6374 29.024 24.5494 28.352C23.4614 27.68 22.6214 26.696 22.0294 25.4C21.4374 24.104 21.1414 22.544 21.1414 20.72C21.1414 18.928 21.4374 17.384 22.0294 16.088C22.6214 14.776 23.4614 13.776 24.5494 13.088C25.6534 12.4 26.9414 12.056 28.4134 12.056ZM28.4134 14.48C27.1334 14.48 26.1574 14.984 25.4854 15.992C24.8134 16.984 24.4774 18.56 24.4774 20.72C24.4774 24.864 25.7894 26.936 28.4134 26.936C29.6934 26.936 30.6614 26.44 31.3174 25.448C31.9894 24.456 32.3254 22.872 32.3254 20.696C32.3254 18.536 31.9894 16.96 31.3174 15.968C30.6614 14.976 29.6934 14.48 28.4134 14.48Z" fill="#732D1E"/>
</svg>
