<svg width="24" height="24" viewBox="0 0 24 24" fill="none" xmlns="http://www.w3.org/2000/svg">
<path d="M17.8 22.9501C19.1333 22.7668 20.2793 22.1961 21.238 21.2381C22.196 20.2794 22.7667 19.1334 22.95 17.8001C22.9833 17.5834 22.921 17.3961 22.763 17.2381C22.6043 17.0794 22.4083 17.0001 22.175 17.0001C21.9917 17.0001 21.8333 17.0668 21.7 17.2001C21.5667 17.3334 21.4833 17.4918 21.45 17.6751C21.3 18.6584 20.8793 19.4961 20.188 20.1881C19.496 20.8794 18.6583 21.3001 17.675 21.4501C17.4917 21.4834 17.3333 21.5708 17.2 21.7121C17.0667 21.8541 17 22.0168 17 22.2001C17 22.4334 17.0793 22.6251 17.238 22.7751C17.396 22.9251 17.5833 22.9834 17.8 22.9501ZM1.8 7.00011C1.98333 7.00011 2.146 6.93344 2.288 6.80011C2.42933 6.66677 2.51667 6.50844 2.55 6.32511C2.7 5.35844 3.125 4.52511 3.825 3.82511C4.525 3.12511 5.35833 2.70011 6.325 2.55011C6.50833 2.51677 6.66667 2.42911 6.8 2.28711C6.93333 2.14577 7 1.98344 7 1.80011C7 1.56677 6.921 1.37511 6.763 1.22511C6.60433 1.07511 6.41667 1.01677 6.2 1.05011C4.86667 1.23344 3.721 1.80411 2.763 2.76211C1.80433 3.72077 1.23333 4.86677 1.05 6.20011C1.01667 6.41677 1.075 6.60411 1.225 6.76211C1.375 6.92077 1.56667 7.00011 1.8 7.00011ZM3.525 20.4751C1.85833 18.8084 1.025 16.8084 1.025 14.4751C1.025 12.1418 1.85833 10.1418 3.525 8.47511L7.05 4.92511C7.53333 4.44177 8.12067 4.20011 8.812 4.20011C9.504 4.20011 10.0917 4.44177 10.575 4.92511C10.6417 4.99177 10.7043 5.05844 10.763 5.12511C10.821 5.19177 10.8667 5.25844 10.9 5.32511L13.425 2.80011C13.9083 2.31677 14.496 2.07511 15.188 2.07511C15.8793 2.07511 16.4667 2.31677 16.95 2.80011C17.0333 2.88344 17.1 2.95844 17.15 3.02511L17.3 3.22511C17.7833 2.89177 18.325 2.75011 18.925 2.80011C19.525 2.85011 20.0417 3.09177 20.475 3.52511C20.8583 3.90844 21.0917 4.34577 21.175 4.83711C21.2583 5.32911 21.2 5.81677 21 6.30011C21.1 6.35011 21.196 6.40844 21.288 6.47511C21.3793 6.54177 21.4667 6.61677 21.55 6.70011C22.0333 7.18344 22.275 7.77111 22.275 8.46311C22.275 9.15444 22.0333 9.74177 21.55 10.2251L21.15 10.6251C21.2167 10.6584 21.2833 10.7041 21.35 10.7621C21.4167 10.8208 21.4833 10.8834 21.55 10.9501C22.0333 11.4334 22.275 12.0208 22.275 12.7121C22.275 13.4041 22.0333 13.9918 21.55 14.4751L15.525 20.4751C13.8583 22.1418 11.8583 22.9751 9.525 22.9751C7.19167 22.9751 5.19167 22.1418 3.525 20.4751ZM6.7 9.52511L9.175 7.05011C9.275 6.95011 9.325 6.83344 9.325 6.70011C9.325 6.56677 9.275 6.45011 9.175 6.35011C9.075 6.25011 8.95833 6.20411 8.825 6.21211C8.69167 6.22077 8.575 6.26677 8.475 6.35011L4.925 9.87511C4.29167 10.5084 3.81667 11.2251 3.5 12.0251C3.18333 12.8251 3.025 13.6418 3.025 14.4751C3.025 15.3084 3.18333 16.1251 3.5 16.9251C3.81667 17.7251 4.29167 18.4418 4.925 19.0751C5.55833 19.7084 6.275 20.1834 7.075 20.5001C7.875 20.8168 8.69167 20.9751 9.525 20.9751C10.3583 20.9751 11.175 20.8168 11.975 20.5001C12.775 20.1834 13.4917 19.7084 14.125 19.0751L20.125 13.0501C20.225 12.9501 20.275 12.8334 20.275 12.7001C20.275 12.5668 20.225 12.4501 20.125 12.3501C20.025 12.2501 19.9083 12.2001 19.775 12.2001C19.6417 12.2001 19.525 12.2501 19.425 12.3501L16.6 15.1751C16.4167 15.3584 16.1833 15.4541 15.9 15.4621C15.6167 15.4708 15.3833 15.3751 15.2 15.1751C15 14.9584 14.9 14.7168 14.9 14.4501C14.9 14.1834 15 13.9501 15.2 13.7501L20.125 8.82511C20.225 8.72511 20.275 8.60411 20.275 8.46211C20.275 8.32077 20.225 8.20011 20.125 8.10011C20.025 8.01677 19.9083 7.97077 19.775 7.96211C19.6417 7.95411 19.525 8.00011 19.425 8.10011L15.175 12.3501C14.975 12.5501 14.7417 12.6501 14.475 12.6501C14.2083 12.6501 13.975 12.5501 13.775 12.3501C13.575 12.1501 13.475 11.9124 13.475 11.6371C13.475 11.3624 13.575 11.1251 13.775 10.9251L19.075 5.62511C19.175 5.52511 19.225 5.40844 19.225 5.27511C19.225 5.14177 19.175 5.02511 19.075 4.92511C18.975 4.82511 18.8583 4.77511 18.725 4.77511C18.5917 4.77511 18.475 4.82511 18.375 4.92511L13.05 10.2501C12.8667 10.4334 12.6333 10.5251 12.35 10.5251C12.0667 10.5251 11.8333 10.4251 11.65 10.2251C11.45 10.0251 11.35 9.79177 11.35 9.52511C11.35 9.25844 11.45 9.02511 11.65 8.82511L15.525 4.92511C15.625 4.82511 15.675 4.70844 15.675 4.57511C15.675 4.44177 15.625 4.32511 15.525 4.22511C15.4417 4.12511 15.3293 4.07511 15.188 4.07511C15.046 4.07511 14.925 4.12511 14.825 4.22511L8.525 10.5251C8.80833 11.2584 8.91667 12.0084 8.85 12.7751C8.78334 13.5418 8.55 14.2668 8.15 14.9501C7.98333 15.2334 7.73767 15.3791 7.413 15.3871C7.08767 15.3958 6.8 15.2751 6.55 15.0251C6.41667 14.8918 6.34167 14.7124 6.325 14.4871C6.30833 14.2624 6.35833 14.0501 6.475 13.8501C6.725 13.4168 6.85833 12.9541 6.875 12.4621C6.89167 11.9708 6.79167 11.5001 6.575 11.0501C6.44167 10.7668 6.38333 10.4874 6.4 10.2121C6.41667 9.93744 6.51667 9.70844 6.7 9.52511Z" fill="#E46348"/>
</svg>
